<svg id="svg" xmlns="http://www.w3.org/2000/svg" xmlns:xlink="http://www.w3.org/1999/xlink" width="400" height="400" viewBox="0, 0, 400,400"><g id="svgg"><path id="path0" d="M196.748 41.700 C 195.872 42.425,194.701 44.319,192.062 49.283 C 191.326 50.668,190.471 52.084,190.162 52.431 C 189.853 52.779,189.600 53.246,189.600 53.470 C 189.600 53.693,189.240 54.202,188.800 54.600 C 188.360 54.998,188.000 55.464,188.000 55.636 C 188.000 56.128,187.259 57.691,186.405 59.000 C 185.975 59.660,185.256 60.830,184.807 61.600 C 184.359 62.370,183.821 63.270,183.614 63.600 C 183.406 63.930,182.017 66.360,180.527 69.000 C 179.037 71.640,177.698 73.890,177.552 74.000 C 177.406 74.110,176.721 75.280,176.030 76.600 C 174.723 79.095,174.398 79.666,172.953 82.000 C 172.477 82.770,171.591 84.300,170.985 85.400 C 169.496 88.104,168.617 89.630,165.800 94.409 C 164.480 96.648,162.788 99.587,162.040 100.940 C 161.291 102.293,160.216 104.120,159.649 105.000 C 159.083 105.880,158.296 107.230,157.900 108.000 C 156.947 109.851,156.267 110.995,155.725 111.657 C 155.480 111.956,154.712 113.280,154.018 114.600 C 153.323 115.920,152.232 117.810,151.594 118.800 C 150.955 119.790,149.971 121.527,149.407 122.659 C 148.842 123.792,148.115 124.939,147.790 125.208 C 147.466 125.477,147.200 125.864,147.200 126.068 C 147.200 126.514,143.568 132.913,143.147 133.208 C 142.984 133.323,142.656 133.926,142.420 134.549 C 142.183 135.171,141.404 136.608,140.690 137.740 C 139.975 138.873,139.164 140.160,138.887 140.600 C 138.610 141.040,138.113 141.940,137.781 142.600 C 137.449 143.260,136.730 144.520,136.182 145.400 C 135.634 146.280,135.000 147.360,134.773 147.800 C 134.545 148.240,133.963 149.261,133.479 150.068 C 132.996 150.875,131.561 153.305,130.290 155.468 C 129.020 157.631,127.818 159.670,127.620 160.000 C 127.318 160.503,126.205 162.447,121.212 171.200 C 121.023 171.530,120.063 173.150,119.077 174.800 C 116.837 178.547,113.128 185.072,112.482 186.400 C 112.214 186.950,111.281 188.480,110.409 189.800 C 109.536 191.120,108.556 192.787,108.230 193.504 C 107.904 194.221,107.036 195.751,106.300 196.904 C 105.564 198.057,104.538 199.810,104.020 200.800 C 103.502 201.790,102.888 202.844,102.655 203.143 C 102.127 203.818,101.444 204.987,100.516 206.800 C 100.122 207.570,99.686 208.290,99.546 208.400 C 99.407 208.510,98.687 209.721,97.946 211.091 C 97.206 212.461,96.202 214.261,95.716 215.091 C 95.230 215.921,94.529 217.140,94.160 217.800 C 93.791 218.460,93.378 219.090,93.244 219.200 C 93.110 219.310,92.370 220.615,91.600 222.099 C 90.830 223.584,90.083 224.799,89.939 224.799 C 89.796 224.800,89.479 225.295,89.234 225.900 C 88.990 226.505,88.355 227.720,87.823 228.600 C 87.290 229.480,86.573 230.740,86.229 231.400 C 85.885 232.060,85.243 233.185,84.802 233.900 C 84.361 234.615,83.639 235.785,83.198 236.500 C 82.757 237.215,82.131 238.371,81.806 239.068 C 81.481 239.766,80.692 241.116,80.052 242.068 C 79.413 243.021,78.302 244.925,77.583 246.300 C 76.865 247.675,76.125 248.800,75.939 248.800 C 75.752 248.800,75.600 249.002,75.600 249.248 C 75.600 249.495,74.655 251.310,73.500 253.282 C 72.345 255.253,70.888 257.797,70.261 258.933 C 69.635 260.070,68.534 261.900,67.814 263.000 C 67.094 264.100,66.380 265.404,66.227 265.898 C 66.073 266.391,65.732 267.021,65.470 267.298 C 64.913 267.882,61.457 273.869,61.081 274.900 C 60.940 275.285,60.639 275.600,60.413 275.600 C 60.186 275.600,60.000 275.804,60.000 276.053 C 60.000 276.301,59.055 278.124,57.900 280.102 C 56.745 282.081,55.170 284.834,54.400 286.220 C 53.630 287.606,52.849 288.889,52.665 289.070 C 52.480 289.252,52.075 289.940,51.765 290.600 C 51.454 291.260,50.780 292.520,50.267 293.400 C 49.754 294.280,48.831 295.900,48.215 297.000 C 47.600 298.100,46.836 299.299,46.518 299.665 C 46.200 300.030,45.999 300.840,46.070 301.465 L 46.200 302.600 197.200 302.600 L 348.200 302.600 348.332 301.442 C 348.414 300.723,348.146 299.852,347.624 299.148 C 347.163 298.523,346.604 297.604,346.383 297.106 C 346.162 296.608,345.542 295.480,345.006 294.600 C 344.470 293.720,343.827 292.505,343.577 291.900 C 343.326 291.295,342.981 290.800,342.809 290.800 C 342.638 290.800,342.257 290.215,341.963 289.500 C 341.669 288.785,340.933 287.463,340.328 286.563 C 339.723 285.662,339.032 284.492,338.793 283.963 C 338.554 283.433,337.963 282.343,337.479 281.540 C 336.996 280.737,335.430 278.072,334.000 275.617 C 332.570 273.162,331.085 270.669,330.699 270.077 C 330.314 269.485,329.721 268.460,329.383 267.800 C 329.044 267.140,328.341 265.880,327.819 265.000 C 327.298 264.120,326.296 262.320,325.592 261.000 C 324.889 259.680,324.184 258.510,324.025 258.400 C 323.866 258.290,322.730 256.400,321.500 254.200 C 320.270 252.000,318.799 249.517,318.232 248.682 C 317.664 247.847,317.200 247.061,317.200 246.934 C 317.200 246.735,315.688 244.094,312.127 238.075 C 311.648 237.264,310.977 236.060,310.637 235.400 C 310.297 234.740,309.296 233.030,308.414 231.600 C 307.532 230.170,306.520 228.370,306.165 227.600 C 305.810 226.830,305.286 225.930,305.000 225.600 C 304.714 225.270,303.967 224.073,303.340 222.940 C 302.713 221.807,301.120 219.048,299.800 216.808 C 296.339 210.935,295.946 210.252,294.451 207.492 C 293.709 206.123,292.764 204.572,292.351 204.047 C 291.938 203.522,291.600 202.846,291.600 202.546 C 291.600 202.246,291.432 202.000,291.227 202.000 C 291.022 202.000,290.731 201.595,290.582 201.100 C 290.432 200.605,289.702 199.273,288.960 198.140 C 288.218 197.008,287.416 195.658,287.178 195.140 C 286.552 193.783,285.371 191.691,284.900 191.105 C 284.676 190.827,284.009 189.700,283.416 188.600 C 282.824 187.500,281.823 185.790,281.192 184.800 C 280.561 183.810,279.478 181.920,278.785 180.600 C 278.091 179.280,277.306 177.930,277.039 177.600 C 276.773 177.270,276.341 176.550,276.080 176.000 C 275.588 174.963,275.469 174.762,273.310 171.340 C 272.596 170.208,271.819 168.858,271.585 168.340 C 271.351 167.823,270.763 166.741,270.279 165.936 C 268.914 163.663,266.967 160.264,266.649 159.600 C 266.491 159.270,265.965 158.347,265.481 157.548 C 264.996 156.750,262.800 153.002,260.600 149.221 C 258.400 145.440,256.311 141.863,255.957 141.273 C 255.369 140.292,254.577 138.910,253.138 136.355 C 252.842 135.830,252.395 135.130,252.145 134.800 C 251.895 134.470,251.165 133.210,250.522 132.000 C 249.878 130.790,248.878 129.055,248.299 128.144 C 247.719 127.233,246.560 125.237,245.723 123.709 C 244.885 122.180,243.120 119.092,241.800 116.846 C 240.480 114.600,239.149 112.275,238.842 111.681 C 238.535 111.086,237.722 109.700,237.037 108.600 C 234.198 104.045,232.400 100.867,232.400 100.406 C 232.400 100.183,232.240 100.000,232.043 100.000 C 231.847 100.000,231.387 99.325,231.020 98.500 C 230.653 97.675,229.959 96.349,229.476 95.553 C 228.994 94.758,227.880 92.895,227.000 91.414 C 226.120 89.933,225.007 88.064,224.527 87.261 C 224.048 86.457,223.368 85.260,223.017 84.600 C 222.666 83.940,222.152 83.040,221.875 82.600 C 221.597 82.160,220.877 80.900,220.275 79.800 C 219.672 78.700,218.823 77.260,218.389 76.600 C 217.954 75.940,217.321 74.860,216.983 74.200 C 216.644 73.540,215.933 72.280,215.403 71.400 C 214.873 70.520,214.205 69.350,213.919 68.800 C 213.634 68.250,212.815 66.904,212.100 65.809 C 211.385 64.714,210.800 63.648,210.800 63.441 C 210.800 63.233,210.544 62.779,210.230 62.431 C 209.917 62.084,209.116 60.765,208.451 59.500 C 207.787 58.235,206.603 56.236,205.821 55.058 C 205.040 53.881,204.400 52.752,204.400 52.549 C 204.400 52.347,203.748 51.196,202.951 49.991 C 202.154 48.786,201.021 46.900,200.432 45.800 C 197.891 41.049,197.739 40.880,196.748 41.700 M204.386 161.851 C 210.703 165.171,212.800 171.016,210.825 179.800 C 210.578 180.900,210.122 183.811,209.811 186.269 C 209.501 188.728,209.072 191.428,208.858 192.269 C 208.644 193.111,208.350 195.240,208.204 197.000 C 208.058 198.760,207.693 201.370,207.394 202.800 C 207.094 204.230,206.734 206.660,206.594 208.200 C 206.454 209.740,206.094 212.170,205.794 213.600 C 205.494 215.030,205.134 217.418,204.992 218.907 C 204.591 223.127,203.337 229.623,202.824 230.136 C 202.156 230.804,193.406 230.766,192.733 230.093 C 192.454 229.814,192.011 228.014,191.749 226.093 C 190.325 215.659,189.955 213.099,189.422 210.000 C 188.843 206.636,188.489 204.165,187.416 196.000 C 186.691 190.485,185.738 184.305,184.887 179.600 C 183.429 171.538,184.070 168.192,187.811 164.338 C 191.702 160.329,199.314 159.187,204.386 161.851 M202.567 239.890 C 212.292 246.726,202.788 260.554,192.749 254.176 C 186.955 250.494,188.604 240.470,195.284 238.771 C 197.662 238.166,200.800 238.648,202.567 239.890 M323.667 284.012 C 324.488 284.240,325.675 285.035,326.363 285.819 C 327.082 286.638,328.127 287.325,328.882 287.476 C 333.805 288.461,337.221 294.232,334.743 297.381 L 333.942 298.400 322.751 298.400 L 311.559 298.400 310.965 296.979 C 309.816 294.228,311.176 291.384,314.035 290.560 C 315.034 290.271,315.426 289.818,316.011 288.277 C 317.439 284.511,320.109 283.024,323.667 284.012 " stroke="none" fill="#fbfafa" fill-rule="evenodd"></path><path id="path1" d="M175.320 15.145 C 173.956 15.285,172.615 15.625,172.340 15.900 C 172.033 16.207,170.733 16.400,168.970 16.400 C 165.443 16.400,163.600 16.742,163.600 17.397 C 163.600 17.746,162.415 17.950,159.599 18.086 C 156.644 18.228,155.406 18.451,154.867 18.939 C 154.375 19.384,153.422 19.600,151.944 19.600 C 150.304 19.600,149.534 19.802,148.892 20.400 C 148.300 20.952,147.481 21.200,146.249 21.200 C 144.086 21.200,143.200 21.503,143.200 22.243 C 143.200 22.645,142.643 22.800,141.203 22.800 C 139.640 22.800,139.098 22.974,138.707 23.600 C 138.335 24.197,137.774 24.400,136.504 24.400 C 135.333 24.400,134.550 24.650,134.000 25.200 C 133.432 25.768,132.667 26.000,131.363 26.000 C 129.862 26.000,129.487 26.146,129.316 26.800 C 129.153 27.421,128.770 27.600,127.600 27.600 C 126.430 27.600,126.047 27.779,125.884 28.400 C 125.713 29.055,125.338 29.200,123.825 29.200 C 122.616 29.200,121.901 29.392,121.762 29.755 C 121.645 30.060,121.042 30.412,120.423 30.535 C 119.803 30.659,119.045 31.012,118.738 31.319 C 118.431 31.626,117.509 32.003,116.690 32.157 C 115.781 32.327,115.200 32.663,115.200 33.018 C 115.200 33.419,114.754 33.600,113.763 33.600 C 112.662 33.600,112.276 33.787,112.116 34.400 C 111.957 35.006,111.570 35.200,110.516 35.200 C 109.462 35.200,109.075 35.394,108.916 36.000 C 108.800 36.443,108.370 36.800,107.953 36.800 C 107.539 36.800,106.840 37.160,106.400 37.600 C 105.960 38.040,105.240 38.400,104.800 38.400 C 104.360 38.400,103.640 38.760,103.200 39.200 C 102.760 39.640,102.113 40.000,101.763 40.000 C 101.412 40.000,101.031 40.360,100.916 40.800 C 100.766 41.374,100.370 41.600,99.516 41.600 C 98.662 41.600,98.266 41.826,98.116 42.400 C 97.989 42.886,97.570 43.200,97.050 43.200 C 96.578 43.200,95.968 43.560,95.693 44.000 C 95.410 44.452,94.760 44.800,94.197 44.800 C 93.648 44.800,93.196 45.025,93.191 45.300 C 93.182 45.785,91.753 46.712,89.500 47.696 C 88.895 47.959,88.400 48.394,88.400 48.661 C 88.400 48.928,88.040 49.260,87.600 49.400 C 87.160 49.540,86.800 49.912,86.800 50.227 C 86.800 50.542,86.431 50.800,85.981 50.800 C 85.530 50.800,84.745 51.250,84.235 51.800 C 83.725 52.350,83.104 52.800,82.854 52.800 C 82.604 52.800,82.400 53.070,82.400 53.400 C 82.400 53.730,82.052 54.000,81.627 54.000 C 81.202 54.000,80.754 54.315,80.632 54.700 C 80.509 55.085,79.882 55.634,79.237 55.919 C 78.551 56.223,77.894 56.928,77.653 57.619 C 77.315 58.589,77.017 58.800,75.983 58.800 C 75.082 58.800,74.669 59.016,74.526 59.563 C 74.416 59.983,73.983 60.416,73.563 60.526 C 73.143 60.635,72.800 61.012,72.800 61.363 C 72.800 61.733,72.465 62.000,72.000 62.000 C 71.560 62.000,71.200 62.249,71.200 62.553 C 71.200 62.858,70.840 63.201,70.400 63.316 C 69.960 63.431,69.600 63.791,69.600 64.116 C 69.600 64.441,69.240 64.801,68.800 64.916 C 68.360 65.031,68.000 65.391,68.000 65.716 C 68.000 66.041,67.640 66.401,67.200 66.516 C 66.760 66.631,66.400 66.991,66.400 67.316 C 66.400 67.641,66.040 68.001,65.600 68.116 C 65.160 68.231,64.800 68.591,64.800 68.916 C 64.800 69.241,64.440 69.601,64.000 69.716 C 63.560 69.831,63.200 70.212,63.200 70.563 C 63.200 70.913,62.930 71.200,62.600 71.200 C 62.267 71.200,62.000 71.556,62.000 72.000 C 62.000 72.533,61.733 72.800,61.200 72.800 C 60.667 72.800,60.400 73.067,60.400 73.600 C 60.400 74.133,60.133 74.400,59.600 74.400 C 59.083 74.400,58.800 74.667,58.800 75.153 C 58.800 75.570,58.443 76.000,58.000 76.116 C 57.560 76.231,57.200 76.591,57.200 76.916 C 57.200 77.241,56.840 77.601,56.400 77.716 C 55.960 77.831,55.600 78.212,55.600 78.563 C 55.600 78.933,55.265 79.200,54.800 79.200 C 54.158 79.200,54.000 79.467,54.000 80.553 C 54.000 81.570,53.801 81.959,53.200 82.116 C 52.760 82.231,52.400 82.612,52.400 82.963 C 52.400 83.333,52.065 83.600,51.600 83.600 C 51.067 83.600,50.800 83.867,50.800 84.400 C 50.800 84.840,50.542 85.200,50.227 85.200 C 49.912 85.200,49.537 85.567,49.395 86.016 C 49.252 86.465,48.430 87.531,47.568 88.385 C 46.706 89.239,46.000 90.311,46.000 90.769 C 46.000 91.241,45.741 91.600,45.400 91.600 C 45.070 91.600,44.800 91.939,44.800 92.353 C 44.800 92.770,44.443 93.200,44.000 93.316 C 43.426 93.466,43.200 93.862,43.200 94.716 C 43.200 95.570,42.974 95.966,42.400 96.116 C 41.921 96.241,41.600 96.662,41.600 97.163 C 41.600 97.623,41.349 98.000,41.043 98.000 C 40.431 98.000,40.000 98.841,40.000 100.033 C 40.000 100.533,39.722 100.800,39.200 100.800 C 38.661 100.800,38.400 101.067,38.400 101.617 C 38.400 102.066,38.040 102.820,37.600 103.292 C 37.160 103.764,36.800 104.477,36.800 104.875 C 36.800 105.274,36.549 105.600,36.243 105.600 C 35.598 105.600,35.200 106.452,35.200 107.833 C 35.200 108.533,34.979 108.800,34.400 108.800 C 33.737 108.800,33.600 109.067,33.600 110.353 C 33.600 111.570,33.427 111.952,32.800 112.116 C 32.360 112.231,32.000 112.593,32.000 112.920 C 32.000 113.247,31.740 113.614,31.422 113.736 C 31.104 113.858,30.724 114.597,30.578 115.379 C 30.424 116.197,30.075 116.800,29.755 116.800 C 29.388 116.800,29.200 117.270,29.200 118.186 C 29.200 119.162,28.964 119.698,28.400 120.000 C 27.765 120.340,27.600 120.838,27.600 122.414 C 27.600 124.133,27.493 124.400,26.800 124.400 C 26.133 124.400,26.000 124.667,26.000 126.000 C 26.000 127.333,25.867 127.600,25.200 127.600 C 24.537 127.600,24.400 127.867,24.400 129.153 C 24.400 130.370,24.227 130.752,23.600 130.916 C 22.971 131.080,22.800 131.462,22.800 132.701 C 22.800 133.768,22.542 134.509,22.000 135.000 C 21.394 135.548,21.200 136.232,21.200 137.815 C 21.200 139.570,21.071 139.940,20.400 140.116 C 19.747 140.287,19.600 140.662,19.600 142.159 C 19.600 143.560,19.411 144.111,18.800 144.493 C 18.182 144.879,18.000 145.426,18.000 146.896 C 18.000 148.267,17.776 149.024,17.200 149.600 C 16.656 150.144,16.400 150.933,16.400 152.069 C 16.400 153.040,16.131 154.034,15.757 154.447 C 15.317 154.933,15.047 156.239,14.901 158.579 C 14.753 160.938,14.532 162.000,14.186 162.000 C 13.446 162.000,13.202 162.959,13.186 165.933 C 13.178 167.486,12.933 169.017,12.600 169.600 C 12.180 170.335,12.025 172.119,12.014 176.337 C 12.001 181.732,11.952 182.087,11.200 182.284 C 9.941 182.613,9.941 220.587,11.200 220.916 C 11.954 221.113,12.000 221.462,12.000 226.975 C 12.000 231.806,12.105 232.865,12.600 233.055 C 13.052 233.229,13.200 233.955,13.200 235.993 C 13.200 239.360,13.551 241.200,14.193 241.200 C 14.524 241.200,14.758 242.257,14.907 244.429 C 15.043 246.412,15.355 247.917,15.715 248.329 C 16.038 248.698,16.390 249.975,16.499 251.167 C 16.622 252.527,16.938 253.512,17.348 253.811 C 17.804 254.145,18.000 254.905,18.000 256.344 C 18.000 258.133,18.104 258.400,18.800 258.400 C 19.479 258.400,19.600 258.667,19.600 260.167 C 19.600 262.314,19.904 263.200,20.643 263.200 C 21.045 263.200,21.200 263.757,21.200 265.197 C 21.200 266.760,21.374 267.302,22.000 267.693 C 22.570 268.049,22.800 268.626,22.800 269.696 C 22.800 270.667,23.084 271.484,23.600 272.000 C 24.055 272.455,24.400 273.333,24.400 274.037 C 24.400 274.938,24.617 275.332,25.200 275.484 C 25.827 275.648,26.000 276.030,26.000 277.247 C 26.000 278.533,26.137 278.800,26.800 278.800 C 27.467 278.800,27.600 279.067,27.600 280.400 C 27.600 281.733,27.733 282.000,28.400 282.000 C 29.067 282.000,29.200 282.267,29.200 283.600 C 29.200 284.756,29.367 285.200,29.800 285.200 C 30.200 285.200,30.400 285.600,30.400 286.397 C 30.400 287.160,30.690 287.774,31.200 288.093 C 31.685 288.396,32.000 289.026,32.000 289.693 C 32.000 290.360,32.315 290.990,32.800 291.293 C 33.296 291.603,33.600 292.226,33.600 292.934 C 33.600 293.738,33.836 294.137,34.400 294.284 C 34.843 294.400,35.200 294.830,35.200 295.247 C 35.200 295.661,35.560 296.360,36.000 296.800 C 36.440 297.240,36.800 297.887,36.800 298.237 C 36.800 298.588,37.160 298.969,37.600 299.084 C 38.197 299.240,38.400 299.630,38.400 300.620 C 38.400 301.595,38.612 302.013,39.200 302.200 C 39.640 302.340,40.000 302.802,40.000 303.227 C 40.000 303.733,40.276 304.000,40.800 304.000 C 41.442 304.000,41.600 304.267,41.600 305.353 C 41.600 306.370,41.799 306.759,42.400 306.916 C 42.840 307.031,43.200 307.391,43.200 307.716 C 43.200 308.041,43.560 308.401,44.000 308.516 C 44.579 308.667,44.800 309.062,44.800 309.943 C 44.800 310.612,45.039 311.304,45.330 311.480 C 45.622 311.656,45.976 312.115,46.118 312.500 C 46.259 312.885,46.651 313.200,46.987 313.200 C 47.333 313.200,47.600 313.548,47.600 314.000 C 47.600 314.440,48.320 315.520,49.200 316.400 C 50.080 317.280,50.800 318.287,50.800 318.637 C 50.800 318.988,51.160 319.369,51.600 319.484 C 52.040 319.599,52.400 319.930,52.400 320.220 C 52.400 320.509,52.760 320.860,53.200 321.000 C 53.640 321.140,54.000 321.529,54.000 321.864 C 54.000 322.200,54.360 322.569,54.800 322.684 C 55.243 322.800,55.600 323.230,55.600 323.647 C 55.600 324.133,55.883 324.400,56.400 324.400 C 56.986 324.400,57.200 324.667,57.200 325.397 C 57.200 325.960,57.548 326.610,58.000 326.893 C 58.440 327.168,58.800 327.709,58.800 328.096 C 58.800 328.533,59.103 328.800,59.600 328.800 C 60.065 328.800,60.400 329.067,60.400 329.437 C 60.400 329.788,60.760 330.169,61.200 330.284 C 61.640 330.399,62.000 330.666,62.000 330.877 C 62.000 331.402,64.235 333.600,64.769 333.600 C 65.006 333.600,65.200 333.887,65.200 334.237 C 65.200 334.588,65.560 334.969,66.000 335.084 C 66.440 335.199,66.803 335.497,66.807 335.747 C 66.816 336.321,68.567 338.000,69.156 338.000 C 69.400 338.000,69.600 338.264,69.600 338.586 C 69.600 339.279,70.810 340.000,71.974 340.000 C 72.533 340.000,72.800 340.258,72.800 340.800 C 72.800 341.301,73.067 341.600,73.512 341.600 C 73.937 341.600,74.408 342.086,74.679 342.803 C 75.007 343.674,75.474 344.075,76.366 344.253 C 77.218 344.424,77.600 344.732,77.600 345.250 C 77.600 345.733,77.884 346.000,78.400 346.000 C 78.933 346.000,79.200 346.267,79.200 346.800 C 79.200 347.297,79.467 347.600,79.904 347.600 C 80.291 347.600,80.832 347.960,81.107 348.400 C 81.390 348.852,82.040 349.200,82.603 349.200 C 83.249 349.200,83.600 349.425,83.600 349.837 C 83.600 350.188,83.943 350.565,84.363 350.674 C 84.783 350.784,85.216 351.217,85.326 351.637 C 85.437 352.061,85.874 352.400,86.312 352.400 C 86.745 352.400,87.887 353.120,88.849 354.000 C 89.812 354.880,90.805 355.600,91.057 355.600 C 91.309 355.600,91.614 355.860,91.736 356.178 C 91.858 356.496,92.597 356.876,93.379 357.022 C 94.197 357.176,94.800 357.525,94.800 357.845 C 94.800 358.150,95.160 358.400,95.600 358.400 C 96.133 358.400,96.400 358.667,96.400 359.200 C 96.400 359.786,96.667 360.000,97.397 360.000 C 97.960 360.000,98.610 360.348,98.893 360.800 C 99.249 361.370,99.826 361.600,100.896 361.600 C 102.133 361.600,102.400 361.742,102.400 362.400 C 102.400 362.897,102.667 363.200,103.104 363.200 C 103.491 363.200,104.032 363.560,104.307 364.000 C 104.619 364.499,105.240 364.800,105.957 364.800 C 106.770 364.800,107.168 365.034,107.316 365.600 C 107.475 366.206,107.862 366.400,108.916 366.400 C 109.970 366.400,110.357 366.594,110.516 367.200 C 110.667 367.778,111.062 368.000,111.936 368.000 C 112.795 368.000,113.220 368.232,113.400 368.800 C 113.584 369.380,114.005 369.600,114.931 369.600 C 115.774 369.600,116.377 369.871,116.707 370.400 C 117.052 370.952,117.640 371.200,118.603 371.200 C 119.543 371.200,120.000 371.386,120.000 371.768 C 120.000 372.084,120.576 372.463,121.294 372.621 C 122.006 372.777,122.777 373.163,123.008 373.479 C 123.239 373.795,124.184 374.154,125.108 374.278 C 126.032 374.402,126.993 374.750,127.243 375.052 C 127.493 375.353,128.353 375.600,129.153 375.600 C 130.174 375.600,130.756 375.838,131.107 376.400 C 131.483 377.002,132.040 377.200,133.357 377.200 C 134.770 377.200,135.147 377.354,135.316 378.000 C 135.493 378.677,135.862 378.800,137.716 378.800 C 139.570 378.800,139.939 378.923,140.116 379.600 C 140.292 380.275,140.662 380.400,142.474 380.400 C 144.127 380.400,144.780 380.584,145.307 381.200 C 145.853 381.838,146.487 382.000,148.433 382.000 C 150.268 382.000,151.126 382.199,151.891 382.800 C 152.628 383.380,153.514 383.600,155.110 383.600 C 156.698 383.600,157.447 383.785,157.797 384.263 C 158.178 384.785,159.188 384.966,162.541 385.115 C 165.603 385.252,166.800 385.447,166.800 385.810 C 166.800 386.630,167.811 386.800,172.689 386.800 C 176.365 386.800,177.403 386.925,177.757 387.409 C 178.729 388.738,214.853 388.689,216.186 387.356 C 216.597 386.946,217.947 386.800,221.339 386.800 C 226.182 386.800,227.200 386.629,227.200 385.815 C 227.200 385.460,228.440 385.252,231.477 385.097 C 234.751 384.929,235.863 384.729,236.221 384.239 C 236.560 383.775,237.353 383.600,239.111 383.600 C 241.896 383.600,242.800 383.344,242.800 382.557 C 242.800 382.143,243.415 382.000,245.200 382.000 C 247.067 382.000,247.778 381.822,248.400 381.200 C 249.004 380.596,249.733 380.400,251.373 380.400 C 253.195 380.400,253.587 380.271,253.800 379.600 C 254.012 378.932,254.405 378.800,256.180 378.800 C 257.970 378.800,258.340 378.673,258.516 378.000 C 258.687 377.348,259.062 377.200,260.548 377.200 C 261.962 377.200,262.468 377.020,262.800 376.400 C 263.104 375.832,263.638 375.600,264.643 375.600 C 265.421 375.600,266.305 375.352,266.609 375.048 C 266.912 374.745,267.979 374.374,268.980 374.224 C 270.107 374.055,270.800 373.745,270.800 373.411 C 270.800 373.094,271.449 372.761,272.369 372.605 C 273.231 372.460,274.036 372.084,274.156 371.770 C 274.276 371.457,274.726 371.200,275.155 371.200 C 276.359 371.200,277.200 370.771,277.200 370.157 C 277.200 369.784,277.675 369.600,278.637 369.600 C 279.738 369.600,280.124 369.413,280.284 368.800 C 280.443 368.194,280.830 368.000,281.884 368.000 C 282.938 368.000,283.325 367.806,283.484 367.200 C 283.643 366.594,284.030 366.400,285.084 366.400 C 286.138 366.400,286.525 366.206,286.684 365.600 C 286.799 365.160,287.218 364.800,287.614 364.800 C 288.762 364.800,289.600 364.360,289.600 363.757 C 289.600 363.430,290.012 363.200,290.600 363.200 C 291.150 363.200,291.960 362.840,292.400 362.400 C 292.840 361.960,293.442 361.600,293.738 361.600 C 294.034 361.600,294.602 361.240,295.000 360.800 C 295.398 360.360,296.073 360.000,296.499 360.000 C 296.938 360.000,297.366 359.653,297.484 359.200 C 297.600 358.757,298.030 358.400,298.447 358.400 C 298.861 358.400,299.200 358.150,299.200 357.845 C 299.200 357.529,299.789 357.179,300.561 357.034 C 301.310 356.893,302.024 356.513,302.149 356.189 C 302.273 355.865,302.644 355.600,302.973 355.600 C 303.303 355.600,303.752 355.264,303.972 354.853 C 304.192 354.442,304.918 353.996,305.586 353.863 C 306.301 353.720,306.800 353.369,306.800 353.010 C 306.800 352.667,307.150 352.400,307.600 352.400 C 308.133 352.400,308.400 352.133,308.400 351.600 C 308.400 351.067,308.667 350.800,309.200 350.800 C 309.733 350.800,310.000 350.533,310.000 350.000 C 310.000 349.417,310.267 349.200,310.984 349.200 C 311.526 349.200,312.291 348.869,312.684 348.464 C 313.078 348.059,313.715 347.615,314.100 347.477 C 314.485 347.338,314.800 346.949,314.800 346.613 C 314.800 346.267,315.148 346.000,315.600 346.000 C 316.133 346.000,316.400 345.733,316.400 345.200 C 316.400 344.692,316.667 344.400,317.130 344.400 C 317.931 344.400,319.600 342.829,319.600 342.074 C 319.600 341.813,319.799 341.600,320.042 341.600 C 320.285 341.600,321.019 341.150,321.673 340.600 C 322.327 340.050,323.118 339.600,323.431 339.600 C 323.744 339.600,324.000 339.313,324.000 338.963 C 324.000 338.612,324.360 338.231,324.800 338.116 C 325.240 338.001,325.600 337.679,325.600 337.400 C 325.600 337.121,325.960 336.799,326.400 336.684 C 326.840 336.569,327.200 336.209,327.200 335.884 C 327.200 335.559,327.560 335.199,328.000 335.084 C 328.440 334.969,328.800 334.600,328.800 334.264 C 328.800 333.929,329.160 333.540,329.600 333.400 C 330.040 333.260,330.400 332.909,330.400 332.620 C 330.400 332.330,330.760 331.999,331.200 331.884 C 331.640 331.769,332.000 331.388,332.000 331.037 C 332.000 330.687,332.258 330.400,332.573 330.400 C 332.888 330.400,333.260 330.040,333.400 329.600 C 333.540 329.160,333.917 328.800,334.240 328.800 C 334.562 328.800,334.941 328.499,335.082 328.131 C 335.223 327.762,335.668 327.132,336.069 326.731 C 336.471 326.329,336.800 325.661,336.800 325.247 C 336.800 324.830,337.157 324.400,337.600 324.284 C 338.040 324.169,338.400 323.788,338.400 323.437 C 338.400 323.087,338.676 322.800,339.013 322.800 C 339.349 322.800,339.736 322.512,339.871 322.160 C 340.185 321.342,341.918 319.600,342.418 319.600 C 342.628 319.600,342.800 319.150,342.800 318.600 C 342.800 317.999,343.028 317.600,343.373 317.600 C 343.688 317.600,344.060 317.240,344.200 316.800 C 344.340 316.360,344.693 316.000,344.984 316.000 C 345.572 316.000,346.000 315.143,346.000 313.967 C 346.000 313.467,346.278 313.200,346.800 313.200 C 347.317 313.200,347.600 312.933,347.600 312.447 C 347.600 312.030,347.957 311.600,348.400 311.484 C 349.013 311.324,349.200 310.938,349.200 309.837 C 349.200 308.667,349.348 308.400,350.000 308.400 C 350.517 308.400,350.800 308.133,350.800 307.647 C 350.800 307.230,351.157 306.800,351.600 306.684 C 352.183 306.532,352.400 306.138,352.400 305.237 C 352.400 304.267,352.572 304.000,353.200 304.000 C 353.718 304.000,354.000 303.733,354.000 303.243 C 354.000 302.826,354.260 302.386,354.578 302.264 C 354.896 302.142,355.276 301.403,355.422 300.621 C 355.579 299.789,355.923 299.200,356.254 299.200 C 356.565 299.200,356.984 298.767,357.185 298.239 C 357.386 297.710,357.742 297.160,357.975 297.015 C 358.209 296.871,358.400 296.223,358.400 295.576 C 358.400 294.667,358.581 294.400,359.200 294.400 C 359.842 294.400,360.000 294.133,360.000 293.047 C 360.000 292.030,360.199 291.641,360.800 291.484 C 361.406 291.325,361.600 290.938,361.600 289.884 C 361.600 288.830,361.794 288.443,362.400 288.284 C 363.013 288.124,363.200 287.738,363.200 286.637 C 363.200 285.467,363.348 285.200,364.000 285.200 C 364.667 285.200,364.800 284.933,364.800 283.600 C 364.800 282.267,364.933 282.000,365.600 282.000 C 366.263 282.000,366.400 281.733,366.400 280.447 C 366.400 279.230,366.573 278.848,367.200 278.684 C 367.806 278.525,368.000 278.138,368.000 277.084 C 368.000 276.030,368.194 275.643,368.800 275.484 C 369.414 275.323,369.600 274.938,369.600 273.825 C 369.600 272.926,369.821 272.290,370.181 272.152 C 370.512 272.025,370.874 271.129,371.023 270.065 C 371.167 269.039,371.562 267.981,371.900 267.714 C 372.246 267.441,372.599 266.346,372.708 265.214 C 372.829 263.958,373.092 263.200,373.408 263.200 C 374.052 263.200,374.400 262.294,374.400 260.616 C 374.400 259.891,374.670 259.074,375.000 258.800 C 375.395 258.472,375.600 257.578,375.600 256.178 C 375.600 254.405,375.732 254.012,376.400 253.800 C 377.071 253.587,377.200 253.195,377.200 251.373 C 377.200 249.733,377.396 249.004,378.000 248.400 C 378.665 247.735,378.800 247.067,378.800 244.447 C 378.800 241.630,378.885 241.271,379.600 241.084 C 380.330 240.893,380.400 240.538,380.400 237.037 C 380.400 234.024,380.520 233.200,380.957 233.200 C 381.851 233.200,382.000 232.251,382.000 226.581 C 382.000 221.613,382.058 221.197,382.811 220.794 C 383.958 220.180,383.884 181.889,382.733 181.048 C 382.183 180.646,382.044 179.647,381.933 175.321 C 381.824 171.018,381.675 169.943,381.100 169.309 C 380.555 168.708,380.400 167.823,380.400 165.315 C 380.400 162.430,380.316 162.071,379.600 161.884 C 378.879 161.695,378.800 161.338,378.800 158.252 C 378.800 155.238,378.704 154.777,378.000 154.400 C 377.347 154.051,377.200 153.562,377.200 151.748 C 377.200 149.862,377.079 149.493,376.400 149.316 C 375.707 149.135,375.600 148.770,375.600 146.602 C 375.600 144.864,375.416 143.946,375.000 143.600 C 374.670 143.326,374.400 142.477,374.400 141.714 C 374.400 140.662,374.206 140.274,373.600 140.116 C 372.942 139.944,372.800 139.570,372.800 138.015 C 372.800 136.697,372.557 135.843,372.000 135.200 C 371.560 134.693,371.198 133.900,371.195 133.439 C 371.185 131.968,370.724 130.800,370.153 130.800 C 369.774 130.800,369.600 130.296,369.600 129.200 C 369.600 127.867,369.467 127.600,368.800 127.600 C 368.133 127.600,368.000 127.333,368.000 126.000 C 368.000 124.667,367.867 124.400,367.200 124.400 C 366.507 124.400,366.400 124.133,366.400 122.414 C 366.400 120.838,366.235 120.340,365.600 120.000 C 365.068 119.715,364.800 119.162,364.800 118.348 C 364.800 117.462,364.580 117.068,364.000 116.916 C 363.492 116.783,363.200 116.370,363.200 115.786 C 363.200 114.449,362.795 113.600,362.157 113.600 C 361.784 113.600,361.600 113.125,361.600 112.163 C 361.600 111.062,361.413 110.676,360.800 110.516 C 360.360 110.401,360.000 109.989,360.000 109.600 C 360.000 109.211,359.640 108.799,359.200 108.684 C 358.615 108.531,358.400 108.138,358.400 107.225 C 358.400 106.522,358.155 105.881,357.839 105.760 C 357.531 105.641,357.163 104.927,357.021 104.172 C 356.880 103.418,356.587 102.800,356.372 102.800 C 356.156 102.800,355.809 102.350,355.600 101.800 C 355.391 101.250,354.965 100.800,354.654 100.800 C 354.325 100.800,353.979 100.216,353.826 99.400 C 353.669 98.562,353.330 98.000,352.982 98.000 C 352.658 98.000,352.400 97.629,352.400 97.163 C 352.400 96.662,352.079 96.241,351.600 96.116 C 351.160 96.001,350.800 95.582,350.800 95.186 C 350.800 94.038,350.360 93.200,349.757 93.200 C 349.451 93.200,349.200 92.840,349.200 92.400 C 349.200 91.867,348.933 91.600,348.400 91.600 C 347.830 91.600,347.600 91.333,347.600 90.672 C 347.600 89.684,345.642 87.200,344.864 87.200 C 344.609 87.200,344.400 86.750,344.400 86.200 C 344.400 85.467,344.187 85.200,343.600 85.200 C 343.067 85.200,342.800 84.933,342.800 84.400 C 342.800 83.960,342.551 83.600,342.247 83.600 C 341.942 83.600,341.599 83.240,341.484 82.800 C 341.369 82.360,341.008 82.000,340.682 82.000 C 340.321 82.000,339.986 81.452,339.826 80.600 C 339.661 79.716,339.336 79.200,338.944 79.200 C 338.604 79.200,338.231 78.840,338.116 78.400 C 338.001 77.960,337.679 77.600,337.400 77.600 C 337.121 77.600,336.799 77.240,336.684 76.800 C 336.569 76.360,336.188 76.000,335.837 76.000 C 335.467 76.000,335.200 75.665,335.200 75.200 C 335.200 74.667,334.933 74.400,334.400 74.400 C 333.867 74.400,333.600 74.133,333.600 73.600 C 333.600 73.067,333.333 72.800,332.800 72.800 C 332.267 72.800,332.000 72.533,332.000 72.000 C 332.000 71.467,331.733 71.200,331.200 71.200 C 330.667 71.200,330.400 70.933,330.400 70.400 C 330.400 69.867,330.133 69.600,329.600 69.600 C 329.067 69.600,328.800 69.333,328.800 68.800 C 328.800 68.283,328.533 68.000,328.047 68.000 C 327.630 68.000,327.200 67.643,327.084 67.200 C 326.969 66.760,326.588 66.400,326.237 66.400 C 325.887 66.400,325.600 66.139,325.600 65.820 C 325.600 65.501,325.361 65.096,325.070 64.920 C 324.778 64.744,324.424 64.285,324.282 63.900 C 324.141 63.515,323.659 63.200,323.213 63.200 C 322.766 63.200,322.400 62.951,322.400 62.647 C 322.400 62.342,322.040 61.999,321.600 61.884 C 321.160 61.769,320.800 61.388,320.800 61.037 C 320.800 60.687,320.551 60.400,320.247 60.400 C 319.942 60.400,319.599 60.040,319.484 59.600 C 319.324 58.987,318.938 58.800,317.837 58.800 C 316.667 58.800,316.400 58.652,316.400 58.000 C 316.400 57.467,316.133 57.200,315.600 57.200 C 315.067 57.200,314.800 56.933,314.800 56.400 C 314.800 55.867,314.533 55.600,314.000 55.600 C 313.467 55.600,313.200 55.333,313.200 54.800 C 313.200 54.267,312.933 54.000,312.400 54.000 C 311.935 54.000,311.600 53.733,311.600 53.363 C 311.600 53.012,311.252 52.634,310.828 52.523 C 310.403 52.412,309.967 52.092,309.860 51.812 C 309.753 51.532,309.163 51.177,308.550 51.023 C 307.937 50.869,307.193 50.396,306.895 49.972 C 306.598 49.547,306.095 49.200,305.777 49.200 C 305.460 49.200,305.200 48.930,305.200 48.600 C 305.200 48.270,304.958 48.000,304.662 48.000 C 304.366 48.000,303.601 47.550,302.962 47.000 C 302.323 46.451,301.594 46.001,301.343 46.000 C 301.091 46.000,300.782 45.730,300.655 45.400 C 300.511 45.023,299.899 44.800,299.013 44.800 C 297.867 44.800,297.600 44.649,297.600 44.000 C 297.600 43.483,297.333 43.200,296.847 43.200 C 296.430 43.200,296.000 42.843,295.884 42.400 C 295.724 41.787,295.338 41.600,294.237 41.600 C 293.067 41.600,292.800 41.452,292.800 40.800 C 292.800 40.356,292.533 40.000,292.200 40.000 C 291.870 40.000,291.240 39.640,290.800 39.200 C 290.360 38.760,289.578 38.400,289.062 38.400 C 288.546 38.400,287.798 38.040,287.400 37.600 C 287.002 37.160,286.387 36.800,286.034 36.800 C 285.681 36.800,285.168 36.440,284.893 36.000 C 284.574 35.490,283.960 35.200,283.197 35.200 C 282.440 35.200,282.000 34.995,282.000 34.643 C 282.000 33.998,281.148 33.600,279.767 33.600 C 279.178 33.600,278.800 33.368,278.800 33.005 C 278.800 32.621,278.240 32.320,277.225 32.158 C 276.358 32.019,275.558 31.667,275.446 31.375 C 275.334 31.083,274.615 30.727,273.849 30.583 C 273.082 30.439,272.359 30.069,272.240 29.761 C 272.095 29.383,271.370 29.200,270.013 29.200 C 268.267 29.200,268.000 29.094,268.000 28.400 C 268.000 27.736,267.733 27.600,266.427 27.600 C 265.205 27.600,264.797 27.421,264.600 26.800 C 264.393 26.149,263.995 26.000,262.462 26.000 C 261.073 26.000,260.398 25.790,259.893 25.200 C 259.381 24.602,258.713 24.400,257.251 24.400 C 255.630 24.400,255.257 24.263,255.084 23.600 C 254.913 22.946,254.538 22.800,253.037 22.800 C 251.733 22.800,250.968 22.568,250.400 22.000 C 249.832 21.432,249.067 21.200,247.763 21.200 C 246.532 21.200,245.591 20.936,244.909 20.400 C 244.155 19.807,243.286 19.600,241.546 19.600 C 240.256 19.600,239.200 19.428,239.200 19.219 C 239.200 18.597,236.397 18.005,233.444 18.002 C 231.315 18.001,230.575 17.846,230.191 17.321 C 229.798 16.783,228.870 16.607,225.747 16.477 C 222.833 16.356,221.606 16.141,221.058 15.656 C 220.277 14.965,181.300 14.529,175.320 15.145 M198.925 40.900 C 199.456 41.395,200.463 42.874,201.161 44.186 C 201.860 45.498,202.660 46.848,202.939 47.186 C 203.217 47.524,203.667 48.250,203.938 48.800 C 204.210 49.350,204.656 50.160,204.930 50.600 C 205.204 51.040,205.838 52.120,206.340 53.000 C 206.842 53.880,207.690 55.320,208.224 56.200 C 208.758 57.080,209.471 58.340,209.810 59.000 C 210.148 59.660,210.779 60.740,211.211 61.400 C 211.642 62.060,212.361 63.320,212.808 64.200 C 213.901 66.353,214.947 68.156,215.244 68.400 C 215.557 68.657,218.222 73.400,219.009 75.100 C 219.340 75.815,219.771 76.400,219.966 76.400 C 220.162 76.400,220.510 76.941,220.741 77.602 C 220.971 78.263,221.762 79.748,222.499 80.902 C 223.235 82.056,224.261 83.810,224.778 84.800 C 225.296 85.790,225.950 86.870,226.232 87.201 C 226.514 87.531,226.941 88.251,227.182 88.801 C 227.422 89.350,228.058 90.520,228.594 91.400 C 229.130 92.280,229.773 93.495,230.023 94.100 C 230.274 94.705,230.604 95.200,230.757 95.200 C 230.911 95.200,231.658 96.366,232.418 97.791 C 234.553 101.793,234.895 102.394,236.811 105.507 C 238.619 108.444,239.661 110.257,241.745 114.093 C 242.374 115.252,243.125 116.470,243.414 116.800 C 243.702 117.130,244.061 117.895,244.212 118.500 C 244.363 119.105,244.636 119.600,244.818 119.600 C 245.000 119.600,245.708 120.701,246.391 122.046 C 247.075 123.391,247.896 124.753,248.217 125.074 C 248.537 125.394,248.909 126.093,249.043 126.628 C 249.177 127.163,249.430 127.600,249.604 127.600 C 249.779 127.600,250.114 128.095,250.349 128.700 C 250.585 129.305,251.187 130.458,251.688 131.263 C 253.563 134.270,255.200 137.200,255.200 137.545 C 255.200 137.741,255.466 138.123,255.790 138.392 C 256.115 138.661,256.880 139.898,257.490 141.141 C 258.101 142.383,258.811 143.536,259.069 143.702 C 259.327 143.869,259.656 144.544,259.801 145.202 C 259.945 145.861,260.222 146.400,260.415 146.400 C 260.608 146.400,261.348 147.570,262.060 149.000 C 262.772 150.430,263.485 151.600,263.646 151.600 C 263.807 151.600,264.141 152.214,264.388 152.965 C 264.636 153.715,265.100 154.430,265.419 154.552 C 265.739 154.675,266.000 154.949,266.000 155.161 C 266.000 155.731,266.703 157.236,267.607 158.600 C 268.044 159.260,268.684 160.340,269.028 161.000 C 269.373 161.660,270.048 162.855,270.527 163.657 C 273.706 168.964,275.600 172.357,275.600 172.747 C 275.600 172.996,275.789 173.200,276.020 173.200 C 276.252 173.200,276.709 173.785,277.037 174.500 C 277.364 175.215,278.053 176.520,278.568 177.400 C 279.082 178.280,280.102 180.125,280.834 181.500 C 281.565 182.875,282.289 184.000,282.443 184.000 C 282.596 184.000,282.925 184.495,283.173 185.100 C 283.422 185.705,284.160 187.100,284.813 188.200 C 285.467 189.300,286.186 190.560,286.412 191.000 C 286.638 191.440,287.701 193.240,288.774 195.000 C 289.847 196.760,291.237 199.190,291.863 200.400 C 292.488 201.610,293.138 202.780,293.306 203.000 C 294.247 204.232,295.556 206.431,295.794 207.181 C 295.944 207.655,296.941 209.363,298.009 210.975 C 299.076 212.587,300.231 214.512,300.574 215.253 C 300.917 215.994,301.514 217.079,301.899 217.665 C 303.249 219.716,305.200 223.191,305.200 223.545 C 305.200 223.741,305.452 224.111,305.761 224.367 C 306.069 224.623,306.833 225.860,307.459 227.116 C 308.085 228.372,308.823 229.638,309.098 229.928 C 309.374 230.218,309.705 230.880,309.835 231.399 C 309.966 231.918,310.303 232.431,310.585 232.539 C 310.866 232.647,311.218 233.215,311.365 233.802 C 311.512 234.389,311.808 235.078,312.024 235.334 C 312.989 236.484,314.786 239.447,314.793 239.900 C 314.797 240.175,314.960 240.400,315.157 240.400 C 315.353 240.400,315.814 241.075,316.182 241.900 C 316.960 243.648,318.093 245.704,319.211 247.400 C 319.646 248.060,320.284 249.140,320.628 249.800 C 320.973 250.460,321.648 251.651,322.127 252.447 C 322.607 253.242,323.690 255.086,324.532 256.543 C 325.375 258.000,326.216 259.287,326.402 259.401 C 326.587 259.516,326.856 260.146,327.000 260.802 C 327.145 261.458,327.475 262.131,327.735 262.298 C 327.996 262.464,328.725 263.639,329.356 264.909 C 329.987 266.178,330.663 267.316,330.858 267.436 C 331.053 267.556,331.486 268.227,331.820 268.927 C 333.004 271.402,333.719 272.642,336.713 277.400 C 336.990 277.840,337.488 278.740,337.820 279.400 C 338.152 280.060,338.808 281.230,339.279 282.000 C 340.593 284.151,341.937 286.495,342.490 287.600 C 342.766 288.150,343.217 288.838,343.495 289.128 C 343.772 289.418,344.109 290.093,344.243 290.628 C 344.377 291.163,344.645 291.600,344.838 291.600 C 345.031 291.600,345.453 292.232,345.776 293.004 C 346.099 293.776,346.961 295.351,347.693 296.504 C 350.783 301.372,351.042 302.824,348.963 303.614 C 346.613 304.508,46.098 304.098,45.200 303.200 C 44.201 302.201,44.193 301.381,45.166 299.600 C 45.586 298.830,46.213 297.601,46.558 296.869 C 46.903 296.137,47.746 294.706,48.433 293.690 C 49.119 292.673,49.846 291.472,50.050 291.020 C 50.253 290.569,50.820 289.529,51.309 288.709 C 51.799 287.890,52.715 286.270,53.345 285.109 C 53.974 283.949,54.739 282.716,55.045 282.369 C 55.350 282.021,55.600 281.550,55.600 281.322 C 55.600 281.094,55.936 280.479,56.347 279.954 C 56.757 279.429,57.581 278.100,58.177 277.000 C 58.773 275.900,59.784 274.190,60.423 273.200 C 61.061 272.210,61.767 270.950,61.992 270.400 C 62.216 269.850,62.580 269.130,62.801 268.800 C 63.021 268.470,63.391 267.840,63.622 267.400 C 63.852 266.960,64.437 265.945,64.921 265.145 C 65.404 264.345,66.610 262.304,67.600 260.610 C 68.590 258.916,69.586 257.230,69.814 256.865 C 70.041 256.499,70.638 255.480,71.140 254.600 C 71.642 253.720,72.490 252.280,73.024 251.400 C 73.558 250.520,74.273 249.260,74.613 248.600 C 74.954 247.940,75.669 246.680,76.202 245.800 C 76.735 244.920,77.444 243.631,77.776 242.937 C 78.108 242.242,78.520 241.612,78.690 241.537 C 78.861 241.461,79.502 240.410,80.115 239.200 C 80.729 237.990,82.466 234.930,83.977 232.400 C 85.487 229.870,87.301 226.720,88.008 225.400 C 88.715 224.080,89.407 222.910,89.546 222.800 C 89.909 222.514,91.055 220.453,91.827 218.700 C 92.190 217.875,92.635 217.200,92.816 217.200 C 92.998 217.200,93.271 216.805,93.425 216.323 C 93.578 215.840,94.310 214.582,95.052 213.527 C 95.793 212.472,96.400 211.361,96.400 211.058 C 96.400 210.755,96.736 210.079,97.147 209.554 C 97.557 209.029,98.381 207.700,98.977 206.600 C 99.573 205.500,100.569 203.790,101.190 202.800 C 101.811 201.810,102.899 199.920,103.607 198.600 C 104.315 197.280,105.483 195.300,106.202 194.200 C 106.921 193.100,107.632 191.795,107.782 191.300 C 107.931 190.805,108.222 190.400,108.427 190.400 C 108.632 190.400,108.800 190.175,108.801 189.900 C 108.801 189.625,109.516 188.370,110.390 187.111 C 111.264 185.851,112.097 184.352,112.241 183.778 C 112.385 183.205,112.750 182.641,113.051 182.525 C 113.353 182.409,113.600 181.998,113.600 181.611 C 113.600 181.224,113.960 180.450,114.400 179.891 C 114.840 179.331,115.200 178.705,115.200 178.499 C 115.200 178.293,115.560 177.798,116.000 177.400 C 116.440 177.002,116.800 176.372,116.800 176.000 C 116.800 175.628,117.160 174.998,117.600 174.600 C 118.040 174.202,118.408 173.679,118.418 173.438 C 118.428 173.197,119.331 171.560,120.426 169.800 C 121.520 168.040,122.710 165.925,123.069 165.100 C 123.428 164.275,123.855 163.600,124.017 163.600 C 124.180 163.600,124.423 163.163,124.557 162.628 C 124.691 162.093,125.026 161.412,125.301 161.114 C 125.904 160.459,126.966 158.667,127.798 156.900 C 128.135 156.185,128.588 155.600,128.805 155.600 C 129.022 155.600,129.200 155.264,129.200 154.854 C 129.200 154.444,129.560 153.650,130.000 153.091 C 130.440 152.531,130.800 151.971,130.800 151.845 C 130.800 151.719,131.433 150.626,132.206 149.417 C 132.980 148.208,133.794 146.809,134.014 146.309 C 134.235 145.809,134.950 144.590,135.602 143.600 C 136.254 142.610,136.909 141.530,137.059 141.200 C 137.550 140.116,140.951 134.205,141.201 134.000 C 141.335 133.890,141.682 133.215,141.971 132.500 C 142.260 131.785,142.616 131.200,142.761 131.200 C 142.906 131.200,143.251 130.705,143.527 130.100 C 143.804 129.495,144.347 128.460,144.735 127.800 C 145.123 127.140,145.843 125.880,146.335 125.000 C 146.827 124.120,147.664 122.680,148.196 121.800 C 148.727 120.920,149.395 119.750,149.681 119.200 C 149.966 118.650,150.785 117.304,151.500 116.209 C 152.215 115.114,152.800 114.017,152.800 113.771 C 152.800 113.525,153.160 112.998,153.600 112.600 C 154.040 112.202,154.400 111.632,154.400 111.334 C 154.400 111.036,154.994 109.939,155.720 108.896 C 156.446 107.853,157.278 106.415,157.568 105.700 C 157.859 104.985,158.236 104.400,158.405 104.400 C 158.575 104.400,158.817 103.995,158.944 103.500 C 159.071 103.005,159.831 101.610,160.633 100.400 C 161.435 99.190,162.255 97.840,162.455 97.400 C 162.655 96.960,163.255 95.880,163.789 95.000 C 164.322 94.120,164.945 93.040,165.173 92.600 C 165.400 92.160,166.040 91.080,166.596 90.200 C 167.151 89.320,167.871 88.027,168.196 87.327 C 168.522 86.627,168.947 85.956,169.142 85.836 C 169.337 85.716,170.012 84.578,170.642 83.309 C 171.272 82.039,172.352 80.180,173.042 79.177 C 173.732 78.175,174.433 76.925,174.600 76.400 C 174.767 75.875,175.469 74.625,176.161 73.623 C 176.852 72.620,177.635 71.305,177.901 70.700 C 178.166 70.095,178.567 69.600,178.791 69.600 C 179.016 69.600,179.200 69.264,179.200 68.854 C 179.200 68.444,179.522 67.679,179.916 67.154 C 180.310 66.629,180.851 65.750,181.118 65.200 C 181.386 64.650,182.057 63.480,182.609 62.600 C 183.162 61.720,183.802 60.554,184.032 60.008 C 184.262 59.463,184.584 58.923,184.747 58.808 C 185.184 58.502,188.800 52.105,188.800 51.639 C 188.800 51.419,189.025 51.096,189.300 50.920 C 189.575 50.744,190.430 49.385,191.200 47.901 C 191.970 46.416,192.699 45.201,192.820 45.201 C 192.940 45.200,193.251 44.615,193.510 43.900 C 194.697 40.617,197.158 39.254,198.925 40.900 M193.829 162.500 C 191.102 163.421,190.905 163.550,188.386 166.086 C 185.537 168.953,185.205 172.288,186.842 181.600 C 187.054 182.810,187.484 185.960,187.797 188.600 C 188.110 191.240,188.553 194.026,188.781 194.791 C 189.010 195.556,189.306 197.626,189.439 199.391 C 189.573 201.156,189.925 203.590,190.221 204.800 C 190.517 206.010,190.950 208.800,191.182 211.000 C 191.414 213.200,191.771 215.702,191.974 216.561 C 192.177 217.419,192.455 219.489,192.592 221.161 C 192.729 222.832,193.129 225.325,193.480 226.700 L 194.119 229.200 197.845 229.200 C 202.335 229.200,202.189 229.366,202.781 223.600 C 203.014 221.327,203.372 218.822,203.576 218.034 C 203.781 217.245,204.134 214.692,204.361 212.360 C 204.588 210.029,204.941 207.682,205.145 207.145 C 205.349 206.608,205.639 204.736,205.790 202.985 C 205.941 201.233,206.311 198.720,206.612 197.400 C 206.914 196.080,207.358 193.053,207.600 190.674 C 207.842 188.295,208.188 185.955,208.370 185.474 C 208.553 184.993,208.836 182.890,209.001 180.800 C 209.165 178.710,209.545 176.190,209.845 175.200 C 210.472 173.134,210.560 171.133,210.048 170.580 C 209.855 170.371,209.482 169.528,209.219 168.706 C 207.620 163.702,199.714 160.514,193.829 162.500 M195.369 240.519 C 191.669 242.124,190.320 244.695,190.973 248.900 C 191.211 250.430,192.716 252.800,193.449 252.800 C 193.608 252.800,194.071 253.102,194.478 253.471 C 195.592 254.479,199.811 254.410,201.484 253.356 C 206.636 250.113,206.135 242.949,200.600 240.697 C 197.949 239.619,197.483 239.603,195.369 240.519 " stroke="none" fill="#eb141c" fill-rule="evenodd"></path><path id="path2" d="M319.400 284.345 C 317.443 285.235,316.945 285.813,316.011 288.277 C 315.426 289.818,315.034 290.271,314.035 290.560 C 311.176 291.384,309.816 294.228,310.965 296.979 L 311.559 298.400 322.751 298.400 L 333.942 298.400 334.743 297.381 C 337.221 294.232,333.805 288.461,328.882 287.476 C 328.127 287.325,327.082 286.638,326.363 285.819 C 324.468 283.661,322.036 283.146,319.400 284.345 " stroke="none" fill="#0f9bd3" fill-rule="evenodd"></path><path id="path3" d="M195.167 41.300 C 194.514 42.015,193.768 43.185,193.510 43.900 C 193.251 44.615,192.940 45.200,192.820 45.201 C 192.699 45.201,191.970 46.416,191.200 47.901 C 190.430 49.385,189.575 50.744,189.300 50.920 C 189.025 51.096,188.800 51.419,188.800 51.639 C 188.800 52.105,185.184 58.502,184.747 58.808 C 184.584 58.923,184.262 59.463,184.032 60.008 C 183.802 60.554,183.162 61.720,182.609 62.600 C 182.057 63.480,181.386 64.650,181.118 65.200 C 180.851 65.750,180.310 66.629,179.916 67.154 C 179.522 67.679,179.200 68.444,179.200 68.854 C 179.200 69.264,179.016 69.600,178.791 69.600 C 178.567 69.600,178.166 70.095,177.901 70.700 C 177.635 71.305,176.852 72.620,176.161 73.623 C 175.469 74.625,174.767 75.875,174.600 76.400 C 174.433 76.925,173.732 78.175,173.042 79.177 C 172.352 80.180,171.272 82.039,170.642 83.309 C 170.012 84.578,169.337 85.716,169.142 85.836 C 168.947 85.956,168.522 86.627,168.196 87.327 C 167.871 88.027,167.151 89.320,166.596 90.200 C 166.040 91.080,165.400 92.160,165.173 92.600 C 164.945 93.040,164.322 94.120,163.789 95.000 C 163.255 95.880,162.655 96.960,162.455 97.400 C 162.255 97.840,161.435 99.190,160.633 100.400 C 159.831 101.610,159.071 103.005,158.944 103.500 C 158.817 103.995,158.575 104.400,158.405 104.400 C 158.236 104.400,157.859 104.985,157.568 105.700 C 157.278 106.415,156.446 107.853,155.720 108.896 C 154.994 109.939,154.400 111.036,154.400 111.334 C 154.400 111.632,154.040 112.202,153.600 112.600 C 153.160 112.998,152.800 113.525,152.800 113.771 C 152.800 114.017,152.215 115.114,151.500 116.209 C 150.785 117.304,149.966 118.650,149.681 119.200 C 149.395 119.750,148.727 120.920,148.196 121.800 C 147.664 122.680,146.827 124.120,146.335 125.000 C 145.843 125.880,145.123 127.140,144.735 127.800 C 144.347 128.460,143.804 129.495,143.527 130.100 C 143.251 130.705,142.906 131.200,142.761 131.200 C 142.616 131.200,142.260 131.785,141.971 132.500 C 141.682 133.215,141.335 133.890,141.201 134.000 C 140.951 134.205,137.550 140.116,137.059 141.200 C 136.909 141.530,136.254 142.610,135.602 143.600 C 134.950 144.590,134.235 145.809,134.014 146.309 C 133.794 146.809,132.980 148.208,132.206 149.417 C 131.433 150.626,130.800 151.719,130.800 151.845 C 130.800 151.971,130.440 152.531,130.000 153.091 C 129.560 153.650,129.200 154.444,129.200 154.854 C 129.200 155.264,129.022 155.600,128.805 155.600 C 128.588 155.600,128.135 156.185,127.798 156.900 C 126.966 158.667,125.904 160.459,125.301 161.114 C 125.026 161.412,124.691 162.093,124.557 162.628 C 124.423 163.163,124.180 163.600,124.017 163.600 C 123.855 163.600,123.428 164.275,123.069 165.100 C 122.710 165.925,121.520 168.040,120.426 169.800 C 119.331 171.560,118.428 173.197,118.418 173.438 C 118.408 173.679,118.040 174.202,117.600 174.600 C 117.160 174.998,116.800 175.628,116.800 176.000 C 116.800 176.372,116.440 177.002,116.000 177.400 C 115.560 177.798,115.200 178.293,115.200 178.499 C 115.200 178.705,114.840 179.331,114.400 179.891 C 113.960 180.450,113.600 181.224,113.600 181.611 C 113.600 181.998,113.353 182.409,113.051 182.525 C 112.750 182.641,112.385 183.205,112.241 183.778 C 112.097 184.352,111.264 185.851,110.390 187.111 C 109.516 188.370,108.801 189.625,108.801 189.900 C 108.800 190.175,108.632 190.400,108.427 190.400 C 108.222 190.400,107.931 190.805,107.782 191.300 C 107.632 191.795,106.921 193.100,106.202 194.200 C 105.483 195.300,104.315 197.280,103.607 198.600 C 102.899 199.920,101.811 201.810,101.190 202.800 C 100.569 203.790,99.573 205.500,98.977 206.600 C 98.381 207.700,97.557 209.029,97.147 209.554 C 96.736 210.079,96.400 210.755,96.400 211.058 C 96.400 211.361,95.793 212.472,95.052 213.527 C 94.310 214.582,93.578 215.840,93.425 216.323 C 93.271 216.805,92.998 217.200,92.816 217.200 C 92.635 217.200,92.190 217.875,91.827 218.700 C 91.055 220.453,89.909 222.514,89.546 222.800 C 89.407 222.910,88.715 224.080,88.008 225.400 C 87.301 226.720,85.487 229.870,83.977 232.400 C 82.466 234.930,80.729 237.990,80.115 239.200 C 79.502 240.410,78.861 241.461,78.690 241.537 C 78.520 241.612,78.108 242.242,77.776 242.937 C 77.444 243.631,76.735 244.920,76.202 245.800 C 75.669 246.680,74.954 247.940,74.613 248.600 C 74.273 249.260,73.558 250.520,73.024 251.400 C 72.490 252.280,71.642 253.720,71.140 254.600 C 70.638 255.480,70.041 256.499,69.814 256.865 C 69.586 257.230,68.590 258.916,67.600 260.610 C 66.610 262.304,65.404 264.345,64.921 265.145 C 64.437 265.945,63.852 266.960,63.622 267.400 C 63.391 267.840,63.021 268.470,62.801 268.800 C 62.580 269.130,62.216 269.850,61.992 270.400 C 61.767 270.950,61.061 272.210,60.423 273.200 C 59.784 274.190,58.773 275.900,58.177 277.000 C 57.581 278.100,56.757 279.429,56.347 279.954 C 55.936 280.479,55.600 281.094,55.600 281.322 C 55.600 281.550,55.350 282.021,55.045 282.369 C 54.739 282.716,53.974 283.949,53.345 285.109 C 52.715 286.270,51.799 287.890,51.309 288.709 C 50.820 289.529,50.253 290.569,50.050 291.020 C 49.846 291.472,49.119 292.673,48.433 293.690 C 47.746 294.706,46.903 296.137,46.558 296.869 C 46.213 297.601,45.586 298.830,45.166 299.600 C 44.193 301.381,44.201 302.201,45.200 303.200 C 46.098 304.098,346.613 304.508,348.963 303.614 C 351.042 302.824,350.783 301.372,347.693 296.504 C 346.961 295.351,346.099 293.776,345.776 293.004 C 345.453 292.232,345.031 291.600,344.838 291.600 C 344.645 291.600,344.377 291.163,344.243 290.628 C 344.109 290.093,343.772 289.418,343.495 289.128 C 343.217 288.838,342.766 288.150,342.490 287.600 C 341.937 286.495,340.593 284.151,339.279 282.000 C 338.808 281.230,338.152 280.060,337.820 279.400 C 337.488 278.740,336.990 277.840,336.713 277.400 C 333.719 272.642,333.004 271.402,331.820 268.927 C 331.486 268.227,331.053 267.556,330.858 267.436 C 330.663 267.316,329.987 266.178,329.356 264.909 C 328.725 263.639,327.996 262.464,327.735 262.298 C 327.475 262.131,327.145 261.458,327.000 260.802 C 326.856 260.146,326.587 259.516,326.402 259.401 C 326.216 259.287,325.375 258.000,324.532 256.543 C 323.690 255.086,322.607 253.242,322.127 252.447 C 321.648 251.651,320.973 250.460,320.628 249.800 C 320.284 249.140,319.646 248.060,319.211 247.400 C 318.093 245.704,316.960 243.648,316.182 241.900 C 315.814 241.075,315.353 240.400,315.157 240.400 C 314.960 240.400,314.797 240.175,314.793 239.900 C 314.786 239.447,312.989 236.484,312.024 235.334 C 311.808 235.078,311.512 234.389,311.365 233.802 C 311.218 233.215,310.866 232.647,310.585 232.539 C 310.303 232.431,309.966 231.918,309.835 231.399 C 309.705 230.880,309.374 230.218,309.098 229.928 C 308.823 229.638,308.085 228.372,307.459 227.116 C 306.833 225.860,306.069 224.623,305.761 224.367 C 305.452 224.111,305.200 223.741,305.200 223.545 C 305.200 223.191,303.249 219.716,301.899 217.665 C 301.514 217.079,300.917 215.994,300.574 215.253 C 300.231 214.512,299.076 212.587,298.009 210.975 C 296.941 209.363,295.944 207.655,295.794 207.181 C 295.556 206.431,294.247 204.232,293.306 203.000 C 293.138 202.780,292.488 201.610,291.863 200.400 C 291.237 199.190,289.847 196.760,288.774 195.000 C 287.701 193.240,286.638 191.440,286.412 191.000 C 286.186 190.560,285.467 189.300,284.813 188.200 C 284.160 187.100,283.422 185.705,283.173 185.100 C 282.925 184.495,282.596 184.000,282.443 184.000 C 282.289 184.000,281.565 182.875,280.834 181.500 C 280.102 180.125,279.082 178.280,278.568 177.400 C 278.053 176.520,277.364 175.215,277.037 174.500 C 276.709 173.785,276.252 173.200,276.020 173.200 C 275.789 173.200,275.600 172.996,275.600 172.747 C 275.600 172.357,273.706 168.964,270.527 163.657 C 270.048 162.855,269.373 161.660,269.028 161.000 C 268.684 160.340,268.044 159.260,267.607 158.600 C 266.703 157.236,266.000 155.731,266.000 155.161 C 266.000 154.949,265.739 154.675,265.419 154.552 C 265.100 154.430,264.636 153.715,264.388 152.965 C 264.141 152.214,263.807 151.600,263.646 151.600 C 263.485 151.600,262.772 150.430,262.060 149.000 C 261.348 147.570,260.608 146.400,260.415 146.400 C 260.222 146.400,259.945 145.861,259.801 145.202 C 259.656 144.544,259.327 143.869,259.069 143.702 C 258.811 143.536,258.101 142.383,257.490 141.141 C 256.880 139.898,256.115 138.661,255.790 138.392 C 255.466 138.123,255.200 137.741,255.200 137.545 C 255.200 137.200,253.563 134.270,251.688 131.263 C 251.187 130.458,250.585 129.305,250.349 128.700 C 250.114 128.095,249.779 127.600,249.604 127.600 C 249.430 127.600,249.177 127.163,249.043 126.628 C 248.909 126.093,248.537 125.394,248.217 125.074 C 247.896 124.753,247.075 123.391,246.391 122.046 C 245.708 120.701,245.000 119.600,244.818 119.600 C 244.636 119.600,244.363 119.105,244.212 118.500 C 244.061 117.895,243.702 117.130,243.414 116.800 C 243.125 116.470,242.374 115.252,241.745 114.093 C 239.661 110.257,238.619 108.444,236.811 105.507 C 234.895 102.394,234.553 101.793,232.418 97.791 C 231.658 96.366,230.911 95.200,230.757 95.200 C 230.604 95.200,230.274 94.705,230.023 94.100 C 229.773 93.495,229.130 92.280,228.594 91.400 C 228.058 90.520,227.422 89.350,227.182 88.801 C 226.941 88.251,226.514 87.531,226.232 87.201 C 225.950 86.870,225.296 85.790,224.778 84.800 C 224.261 83.810,223.235 82.056,222.499 80.902 C 221.762 79.748,220.971 78.263,220.741 77.602 C 220.510 76.941,220.162 76.400,219.966 76.400 C 219.771 76.400,219.340 75.815,219.009 75.100 C 218.222 73.400,215.557 68.657,215.244 68.400 C 214.947 68.156,213.901 66.353,212.808 64.200 C 212.361 63.320,211.642 62.060,211.211 61.400 C 210.779 60.740,210.148 59.660,209.810 59.000 C 209.471 58.340,208.758 57.080,208.224 56.200 C 207.690 55.320,206.842 53.880,206.340 53.000 C 205.838 52.120,205.204 51.040,204.930 50.600 C 204.656 50.160,204.210 49.350,203.938 48.800 C 203.667 48.250,203.217 47.524,202.939 47.186 C 202.660 46.848,201.860 45.498,201.161 44.186 C 198.850 39.845,197.215 39.058,195.167 41.300 M199.257 42.300 C 199.788 43.125,200.477 44.250,200.789 44.800 C 201.101 45.350,202.104 47.060,203.017 48.600 C 207.130 55.538,208.641 58.114,209.189 59.119 C 209.513 59.714,210.184 60.866,210.681 61.680 C 211.178 62.494,212.233 64.384,213.025 65.880 C 213.817 67.376,214.700 68.870,214.988 69.200 C 215.275 69.530,216.074 70.880,216.763 72.200 C 217.452 73.520,218.527 75.410,219.150 76.400 C 219.774 77.390,222.501 82.070,225.210 86.800 C 227.919 91.530,230.354 95.670,230.621 96.000 C 230.887 96.330,231.712 97.740,232.453 99.133 C 233.194 100.526,234.160 102.273,234.600 103.015 C 237.149 107.313,238.670 109.908,239.200 110.863 C 239.530 111.458,240.970 113.942,242.400 116.382 C 243.830 118.822,245.270 121.314,245.600 121.919 C 246.102 122.838,247.168 124.680,249.584 128.800 C 249.778 129.130,251.045 131.290,252.400 133.600 C 253.755 135.910,255.018 138.070,255.206 138.400 C 255.394 138.730,257.674 142.647,260.274 147.105 C 262.873 151.563,265.274 155.703,265.608 156.305 C 266.442 157.805,269.622 163.346,270.600 165.003 C 274.787 172.095,280.000 181.151,280.000 181.333 C 280.000 181.458,280.522 182.334,281.160 183.280 C 281.798 184.226,282.903 186.080,283.616 187.400 C 284.329 188.720,285.132 190.070,285.400 190.400 C 285.668 190.730,286.427 191.990,287.086 193.200 C 287.745 194.410,288.666 196.030,289.132 196.800 C 289.599 197.570,290.473 199.100,291.076 200.200 C 291.678 201.300,292.357 202.503,292.585 202.873 C 292.813 203.243,294.170 205.550,295.600 208.000 C 297.030 210.450,298.386 212.757,298.614 213.127 C 298.841 213.497,299.433 214.520,299.929 215.400 C 300.424 216.280,301.262 217.720,301.789 218.600 C 302.317 219.480,303.345 221.254,304.074 222.542 C 306.102 226.125,307.252 228.117,309.000 231.075 C 309.880 232.563,310.870 234.272,311.200 234.871 C 312.046 236.408,319.614 249.345,320.707 251.124 C 321.206 251.936,321.783 252.996,321.989 253.480 C 322.196 253.963,322.989 255.313,323.752 256.480 C 324.515 257.646,325.648 259.525,326.270 260.655 C 328.975 265.572,330.582 268.334,331.846 270.241 C 332.591 271.364,333.200 272.419,333.200 272.586 C 333.200 272.753,334.135 274.437,335.278 276.330 C 337.365 279.784,338.140 281.127,340.398 285.200 C 341.068 286.410,342.018 288.043,342.508 288.829 C 348.917 299.102,350.188 302.178,348.396 303.084 C 347.305 303.636,48.396 303.795,46.400 303.244 C 44.235 302.647,44.821 300.839,49.892 292.472 C 50.383 291.662,51.009 290.550,51.283 290.000 C 51.557 289.450,52.334 288.100,53.008 287.000 C 53.682 285.900,54.454 284.550,54.723 284.000 C 54.993 283.450,55.742 282.190,56.390 281.200 C 57.037 280.210,58.036 278.459,58.609 277.308 C 59.182 276.157,59.822 275.110,60.031 274.981 C 60.241 274.851,60.678 274.173,61.002 273.473 C 61.889 271.561,63.993 267.935,64.846 266.850 C 65.261 266.323,65.600 265.707,65.600 265.481 C 65.600 265.255,66.604 263.456,67.830 261.482 C 69.057 259.509,70.234 257.513,70.447 257.047 C 70.860 256.143,70.984 255.931,73.300 252.146 C 74.125 250.798,74.800 249.577,74.800 249.431 C 74.800 249.286,75.136 248.680,75.546 248.084 C 75.956 247.488,77.376 245.110,78.700 242.800 C 80.957 238.862,83.148 235.106,85.684 230.829 C 86.280 229.823,86.996 228.550,87.276 228.000 C 87.555 227.450,88.822 225.299,90.092 223.219 C 91.361 221.139,92.400 219.264,92.400 219.050 C 92.400 218.837,92.650 218.379,92.956 218.031 C 93.421 217.504,97.260 210.952,103.755 199.600 C 104.447 198.390,105.508 196.590,106.112 195.600 C 109.802 189.554,112.400 184.989,112.400 184.551 C 112.400 184.274,112.564 183.946,112.764 183.822 C 112.965 183.698,114.232 181.663,115.582 179.298 C 116.931 176.934,118.252 174.644,118.517 174.210 C 118.783 173.775,119.585 172.467,120.300 171.302 C 121.015 170.137,121.600 169.032,121.600 168.846 C 121.600 168.660,121.936 168.079,122.347 167.554 C 122.757 167.029,123.612 165.652,124.247 164.493 C 126.244 160.843,127.279 159.039,132.000 150.979 C 134.530 146.659,137.112 142.196,137.739 141.062 C 138.365 139.928,139.490 138.069,140.239 136.932 C 140.987 135.795,141.600 134.706,141.600 134.512 C 141.600 134.318,142.291 133.088,143.135 131.780 C 143.979 130.471,145.284 128.286,146.035 126.925 C 146.786 125.563,148.439 122.683,149.710 120.525 C 152.719 115.412,152.380 115.992,155.048 111.400 C 156.327 109.200,157.662 106.860,158.015 106.200 C 159.080 104.210,160.890 101.063,161.582 100.000 C 162.496 98.594,163.046 97.666,164.188 95.600 C 164.735 94.610,166.264 92.000,167.586 89.800 C 168.907 87.600,170.163 85.404,170.377 84.919 C 170.591 84.435,171.261 83.265,171.868 82.319 C 173.234 80.188,174.213 78.486,174.778 77.260 C 175.016 76.742,175.836 75.377,176.601 74.225 C 177.365 73.074,178.492 71.157,179.104 69.966 C 179.716 68.775,180.716 67.026,181.326 66.081 C 181.936 65.135,182.616 63.965,182.838 63.481 C 183.060 62.996,183.637 61.948,184.121 61.150 C 187.584 55.441,193.023 46.088,193.562 44.915 C 195.557 40.571,197.554 39.654,199.257 42.300 M192.158 162.356 C 185.996 165.271,184.090 169.427,185.377 177.143 C 185.887 180.200,186.762 186.195,187.986 195.000 C 188.758 200.560,189.259 203.861,189.836 207.200 C 190.159 209.070,190.591 212.040,190.795 213.800 C 190.999 215.560,191.431 218.800,191.754 221.000 C 192.078 223.200,192.459 225.922,192.602 227.050 C 192.924 229.593,193.640 230.000,197.793 230.000 C 201.699 230.000,202.703 229.595,202.954 227.918 C 203.700 222.914,204.399 217.872,204.604 216.000 C 204.737 214.790,205.095 212.450,205.400 210.800 C 205.705 209.150,206.066 206.810,206.202 205.600 C 206.338 204.390,206.706 201.870,207.018 200.000 C 207.330 198.130,208.043 193.180,208.601 189.000 C 209.160 184.820,209.883 180.001,210.208 178.292 C 211.179 173.193,211.008 170.175,209.610 167.738 C 206.244 161.869,198.339 159.432,192.158 162.356 M201.765 162.448 C 204.966 163.498,208.505 166.469,209.219 168.706 C 209.482 169.528,209.855 170.371,210.048 170.580 C 210.560 171.133,210.472 173.134,209.845 175.200 C 209.545 176.190,209.165 178.710,209.001 180.800 C 208.836 182.890,208.553 184.993,208.370 185.474 C 208.188 185.955,207.842 188.295,207.600 190.674 C 207.358 193.053,206.914 196.080,206.612 197.400 C 206.311 198.720,205.941 201.233,205.790 202.985 C 205.639 204.736,205.349 206.608,205.145 207.145 C 204.941 207.682,204.588 210.029,204.361 212.360 C 204.134 214.692,203.781 217.245,203.576 218.034 C 203.372 218.822,203.014 221.327,202.781 223.600 C 202.189 229.366,202.335 229.200,197.845 229.200 L 194.119 229.200 193.480 226.700 C 193.129 225.325,192.729 222.832,192.592 221.161 C 192.455 219.489,192.177 217.419,191.974 216.561 C 191.771 215.702,191.414 213.200,191.182 211.000 C 190.950 208.800,190.517 206.010,190.221 204.800 C 189.925 203.590,189.573 201.156,189.439 199.391 C 189.306 197.626,189.010 195.556,188.781 194.791 C 188.553 194.026,188.110 191.240,187.797 188.600 C 187.484 185.960,187.054 182.810,186.842 181.600 C 185.205 172.288,185.537 168.953,188.386 166.086 C 192.531 161.914,196.693 160.782,201.765 162.448 M195.000 239.557 C 192.035 240.849,189.244 245.447,189.817 248.098 C 191.777 257.182,204.866 256.984,205.895 247.854 C 206.498 242.505,199.850 237.443,195.000 239.557 M200.600 240.697 C 206.135 242.949,206.636 250.113,201.484 253.356 C 199.811 254.410,195.592 254.479,194.478 253.471 C 194.071 253.102,193.608 252.800,193.449 252.800 C 192.716 252.800,191.211 250.430,190.973 248.900 C 190.320 244.695,191.669 242.124,195.369 240.519 C 197.483 239.603,197.949 239.619,200.600 240.697 " stroke="none" fill="#e9666a" fill-rule="evenodd"></path><path id="path4" d="M195.038 42.415 C 194.450 43.303,193.786 44.428,193.562 44.915 C 193.023 46.088,187.584 55.441,184.121 61.150 C 183.637 61.948,183.060 62.996,182.838 63.481 C 182.616 63.965,181.936 65.135,181.326 66.081 C 180.716 67.026,179.716 68.775,179.104 69.966 C 178.492 71.157,177.365 73.074,176.601 74.225 C 175.836 75.377,175.016 76.742,174.778 77.260 C 174.213 78.486,173.234 80.188,171.868 82.319 C 171.261 83.265,170.591 84.435,170.377 84.919 C 170.163 85.404,168.907 87.600,167.586 89.800 C 166.264 92.000,164.735 94.610,164.188 95.600 C 163.046 97.666,162.496 98.594,161.582 100.000 C 160.890 101.063,159.080 104.210,158.015 106.200 C 157.662 106.860,156.327 109.200,155.048 111.400 C 152.380 115.992,152.719 115.412,149.710 120.525 C 148.439 122.683,146.786 125.563,146.035 126.925 C 145.284 128.286,143.979 130.471,143.135 131.780 C 142.291 133.088,141.600 134.318,141.600 134.512 C 141.600 134.706,140.987 135.795,140.239 136.932 C 139.490 138.069,138.365 139.928,137.739 141.062 C 137.112 142.196,134.530 146.659,132.000 150.979 C 127.279 159.039,126.244 160.843,124.247 164.493 C 123.612 165.652,122.757 167.029,122.347 167.554 C 121.936 168.079,121.600 168.660,121.600 168.846 C 121.600 169.032,121.015 170.137,120.300 171.302 C 119.585 172.467,118.783 173.775,118.517 174.210 C 118.252 174.644,116.931 176.934,115.582 179.298 C 114.232 181.663,112.965 183.698,112.764 183.822 C 112.564 183.946,112.400 184.274,112.400 184.551 C 112.400 184.989,109.802 189.554,106.112 195.600 C 105.508 196.590,104.447 198.390,103.755 199.600 C 97.260 210.952,93.421 217.504,92.956 218.031 C 92.650 218.379,92.400 218.837,92.400 219.050 C 92.400 219.264,91.361 221.139,90.092 223.219 C 88.822 225.299,87.555 227.450,87.276 228.000 C 86.996 228.550,86.280 229.823,85.684 230.829 C 83.148 235.106,80.957 238.862,78.700 242.800 C 77.376 245.110,75.956 247.488,75.546 248.084 C 75.136 248.680,74.800 249.286,74.800 249.431 C 74.800 249.577,74.125 250.798,73.300 252.146 C 70.984 255.931,70.860 256.143,70.447 257.047 C 70.234 257.513,69.057 259.509,67.830 261.482 C 66.604 263.456,65.600 265.255,65.600 265.481 C 65.600 265.707,65.261 266.323,64.846 266.850 C 63.993 267.935,61.889 271.561,61.002 273.473 C 60.678 274.173,60.241 274.851,60.031 274.981 C 59.822 275.110,59.182 276.157,58.609 277.308 C 58.036 278.459,57.037 280.210,56.390 281.200 C 55.742 282.190,54.993 283.450,54.723 284.000 C 54.454 284.550,53.682 285.900,53.008 287.000 C 52.334 288.100,51.557 289.450,51.283 290.000 C 51.009 290.550,50.383 291.662,49.892 292.472 C 44.821 300.839,44.235 302.647,46.400 303.244 C 48.396 303.795,347.305 303.636,348.396 303.084 C 350.188 302.178,348.917 299.102,342.508 288.829 C 342.018 288.043,341.068 286.410,340.398 285.200 C 338.140 281.127,337.365 279.784,335.278 276.330 C 334.135 274.437,333.200 272.753,333.200 272.586 C 333.200 272.419,332.591 271.364,331.846 270.241 C 330.582 268.334,328.975 265.572,326.270 260.655 C 325.648 259.525,324.515 257.646,323.752 256.480 C 322.989 255.313,322.196 253.963,321.989 253.480 C 321.783 252.996,321.206 251.936,320.707 251.124 C 319.614 249.345,312.046 236.408,311.200 234.871 C 310.870 234.272,309.880 232.563,309.000 231.075 C 307.252 228.117,306.102 226.125,304.074 222.542 C 303.345 221.254,302.317 219.480,301.789 218.600 C 301.262 217.720,300.424 216.280,299.929 215.400 C 299.433 214.520,298.841 213.497,298.614 213.127 C 298.386 212.757,297.030 210.450,295.600 208.000 C 294.170 205.550,292.813 203.243,292.585 202.873 C 292.357 202.503,291.678 201.300,291.076 200.200 C 290.473 199.100,289.599 197.570,289.132 196.800 C 288.666 196.030,287.745 194.410,287.086 193.200 C 286.427 191.990,285.668 190.730,285.400 190.400 C 285.132 190.070,284.329 188.720,283.616 187.400 C 282.903 186.080,281.798 184.226,281.160 183.280 C 280.522 182.334,280.000 181.458,280.000 181.333 C 280.000 181.151,274.787 172.095,270.600 165.003 C 269.622 163.346,266.442 157.805,265.608 156.305 C 265.274 155.703,262.873 151.563,260.274 147.105 C 257.674 142.647,255.394 138.730,255.206 138.400 C 255.018 138.070,253.755 135.910,252.400 133.600 C 251.045 131.290,249.778 129.130,249.584 128.800 C 247.168 124.680,246.102 122.838,245.600 121.919 C 245.270 121.314,243.830 118.822,242.400 116.382 C 240.970 113.942,239.530 111.458,239.200 110.863 C 238.670 109.908,237.149 107.313,234.600 103.015 C 234.160 102.273,233.194 100.526,232.453 99.133 C 231.712 97.740,230.887 96.330,230.621 96.000 C 230.354 95.670,227.919 91.530,225.210 86.800 C 222.501 82.070,219.774 77.390,219.150 76.400 C 218.527 75.410,217.452 73.520,216.763 72.200 C 216.074 70.880,215.275 69.530,214.988 69.200 C 214.700 68.870,213.817 67.376,213.025 65.880 C 212.233 64.384,211.178 62.494,210.681 61.680 C 210.184 60.866,209.513 59.714,209.189 59.119 C 208.641 58.114,207.130 55.538,203.017 48.600 C 202.104 47.060,201.101 45.350,200.789 44.800 C 198.132 40.117,196.897 39.605,195.038 42.415 M198.581 42.503 C 199.011 43.216,199.844 44.700,200.432 45.800 C 201.021 46.900,202.154 48.786,202.951 49.991 C 203.748 51.196,204.400 52.347,204.400 52.549 C 204.400 52.752,205.040 53.881,205.821 55.058 C 206.603 56.236,207.787 58.235,208.451 59.500 C 209.116 60.765,209.917 62.084,210.230 62.431 C 210.544 62.779,210.800 63.233,210.800 63.441 C 210.800 63.648,211.385 64.714,212.100 65.809 C 212.815 66.904,213.634 68.250,213.919 68.800 C 214.205 69.350,214.873 70.520,215.403 71.400 C 215.933 72.280,216.644 73.540,216.983 74.200 C 217.321 74.860,217.954 75.940,218.389 76.600 C 218.823 77.260,219.672 78.700,220.275 79.800 C 220.877 80.900,221.597 82.160,221.875 82.600 C 222.152 83.040,222.666 83.940,223.017 84.600 C 223.368 85.260,224.048 86.457,224.527 87.261 C 225.007 88.064,226.120 89.933,227.000 91.414 C 227.880 92.895,228.994 94.758,229.476 95.553 C 229.959 96.349,230.653 97.675,231.020 98.500 C 231.387 99.325,231.847 100.000,232.043 100.000 C 232.240 100.000,232.400 100.183,232.400 100.406 C 232.400 100.867,234.198 104.045,237.037 108.600 C 237.722 109.700,238.535 111.086,238.842 111.681 C 239.149 112.275,240.480 114.600,241.800 116.846 C 243.120 119.092,244.885 122.180,245.723 123.709 C 246.560 125.237,247.719 127.233,248.299 128.144 C 248.878 129.055,249.878 130.790,250.522 132.000 C 251.165 133.210,251.895 134.470,252.145 134.800 C 252.395 135.130,252.842 135.830,253.138 136.355 C 254.577 138.910,255.369 140.292,255.957 141.273 C 256.311 141.863,258.400 145.440,260.600 149.221 C 262.800 153.002,264.996 156.750,265.481 157.548 C 265.965 158.347,266.491 159.270,266.649 159.600 C 266.967 160.264,268.914 163.663,270.279 165.936 C 270.763 166.741,271.351 167.823,271.585 168.340 C 271.819 168.858,272.596 170.208,273.310 171.340 C 275.469 174.762,275.588 174.963,276.080 176.000 C 276.341 176.550,276.773 177.270,277.039 177.600 C 277.306 177.930,278.091 179.280,278.785 180.600 C 279.478 181.920,280.561 183.810,281.192 184.800 C 281.823 185.790,282.824 187.500,283.416 188.600 C 284.009 189.700,284.676 190.827,284.900 191.105 C 285.371 191.691,286.552 193.783,287.178 195.140 C 287.416 195.658,288.218 197.008,288.960 198.140 C 289.702 199.273,290.432 200.605,290.582 201.100 C 290.731 201.595,291.022 202.000,291.227 202.000 C 291.432 202.000,291.600 202.246,291.600 202.546 C 291.600 202.846,291.938 203.522,292.351 204.047 C 292.764 204.572,293.709 206.123,294.451 207.492 C 295.946 210.252,296.339 210.935,299.800 216.808 C 301.120 219.048,302.713 221.807,303.340 222.940 C 303.967 224.073,304.714 225.270,305.000 225.600 C 305.286 225.930,305.810 226.830,306.165 227.600 C 306.520 228.370,307.532 230.170,308.414 231.600 C 309.296 233.030,310.297 234.740,310.637 235.400 C 310.977 236.060,311.648 237.264,312.127 238.075 C 315.688 244.094,317.200 246.735,317.200 246.934 C 317.200 247.061,317.664 247.847,318.232 248.682 C 318.799 249.517,320.270 252.000,321.500 254.200 C 322.730 256.400,323.866 258.290,324.025 258.400 C 324.184 258.510,324.889 259.680,325.592 261.000 C 326.296 262.320,327.298 264.120,327.819 265.000 C 328.341 265.880,329.044 267.140,329.383 267.800 C 329.721 268.460,330.314 269.485,330.699 270.077 C 331.085 270.669,332.570 273.162,334.000 275.617 C 335.430 278.072,336.996 280.737,337.479 281.540 C 337.963 282.343,338.554 283.433,338.793 283.963 C 339.032 284.492,339.723 285.662,340.328 286.563 C 340.933 287.463,341.669 288.785,341.963 289.500 C 342.257 290.215,342.638 290.800,342.809 290.800 C 342.981 290.800,343.326 291.295,343.577 291.900 C 343.827 292.505,344.470 293.720,345.006 294.600 C 345.542 295.480,346.162 296.608,346.383 297.106 C 346.604 297.604,347.163 298.523,347.624 299.148 C 348.146 299.852,348.414 300.723,348.332 301.442 L 348.200 302.600 197.200 302.600 L 46.200 302.600 46.070 301.465 C 45.999 300.840,46.200 300.030,46.518 299.665 C 46.836 299.299,47.600 298.100,48.215 297.000 C 48.831 295.900,49.754 294.280,50.267 293.400 C 50.780 292.520,51.454 291.260,51.765 290.600 C 52.075 289.940,52.480 289.252,52.665 289.070 C 52.849 288.889,53.630 287.606,54.400 286.220 C 55.170 284.834,56.745 282.081,57.900 280.102 C 59.055 278.124,60.000 276.301,60.000 276.053 C 60.000 275.804,60.186 275.600,60.413 275.600 C 60.639 275.600,60.940 275.285,61.081 274.900 C 61.457 273.869,64.913 267.882,65.470 267.298 C 65.732 267.021,66.073 266.391,66.227 265.898 C 66.380 265.404,67.094 264.100,67.814 263.000 C 68.534 261.900,69.635 260.070,70.261 258.933 C 70.888 257.797,72.345 255.253,73.500 253.282 C 74.655 251.310,75.600 249.495,75.600 249.248 C 75.600 249.002,75.752 248.800,75.939 248.800 C 76.125 248.800,76.865 247.675,77.583 246.300 C 78.302 244.925,79.413 243.021,80.052 242.068 C 80.692 241.116,81.481 239.766,81.806 239.068 C 82.131 238.371,82.757 237.215,83.198 236.500 C 83.639 235.785,84.361 234.615,84.802 233.900 C 85.243 233.185,85.885 232.060,86.229 231.400 C 86.573 230.740,87.290 229.480,87.823 228.600 C 88.355 227.720,88.990 226.505,89.234 225.900 C 89.479 225.295,89.796 224.800,89.939 224.799 C 90.083 224.799,90.830 223.584,91.600 222.099 C 92.370 220.615,93.110 219.310,93.244 219.200 C 93.378 219.090,93.791 218.460,94.160 217.800 C 94.529 217.140,95.230 215.921,95.716 215.091 C 96.202 214.261,97.206 212.461,97.946 211.091 C 98.687 209.721,99.407 208.510,99.546 208.400 C 99.686 208.290,100.122 207.570,100.516 206.800 C 101.444 204.987,102.127 203.818,102.655 203.143 C 102.888 202.844,103.502 201.790,104.020 200.800 C 104.538 199.810,105.564 198.057,106.300 196.904 C 107.036 195.751,107.904 194.221,108.230 193.504 C 108.556 192.787,109.536 191.120,110.409 189.800 C 111.281 188.480,112.214 186.950,112.482 186.400 C 113.128 185.072,116.837 178.547,119.077 174.800 C 120.063 173.150,121.023 171.530,121.212 171.200 C 126.205 162.447,127.318 160.503,127.620 160.000 C 127.818 159.670,129.020 157.631,130.290 155.468 C 131.561 153.305,132.996 150.875,133.479 150.068 C 133.963 149.261,134.545 148.240,134.773 147.800 C 135.000 147.360,135.634 146.280,136.182 145.400 C 136.730 144.520,137.449 143.260,137.781 142.600 C 138.113 141.940,138.610 141.040,138.887 140.600 C 139.164 140.160,139.975 138.873,140.690 137.740 C 141.404 136.608,142.183 135.171,142.420 134.549 C 142.656 133.926,142.984 133.323,143.147 133.208 C 143.568 132.913,147.200 126.514,147.200 126.068 C 147.200 125.864,147.466 125.477,147.790 125.208 C 148.115 124.939,148.842 123.792,149.407 122.659 C 149.971 121.527,150.955 119.790,151.594 118.800 C 152.232 117.810,153.323 115.920,154.018 114.600 C 154.712 113.280,155.480 111.956,155.725 111.657 C 156.267 110.995,156.947 109.851,157.900 108.000 C 158.296 107.230,159.083 105.880,159.649 105.000 C 160.216 104.120,161.291 102.293,162.040 100.940 C 162.788 99.587,164.480 96.648,165.800 94.409 C 168.617 89.630,169.496 88.104,170.985 85.400 C 171.591 84.300,172.477 82.770,172.953 82.000 C 174.398 79.666,174.723 79.095,176.030 76.600 C 176.721 75.280,177.406 74.110,177.552 74.000 C 177.698 73.890,179.037 71.640,180.527 69.000 C 182.017 66.360,183.406 63.930,183.614 63.600 C 183.821 63.270,184.359 62.370,184.807 61.600 C 185.256 60.830,185.975 59.660,186.405 59.000 C 187.259 57.691,188.000 56.128,188.000 55.636 C 188.000 55.464,188.360 54.998,188.800 54.600 C 189.240 54.202,189.600 53.693,189.600 53.470 C 189.600 53.246,189.853 52.779,190.162 52.431 C 190.471 52.084,191.326 50.668,192.062 49.283 C 196.489 40.958,197.204 40.214,198.581 42.503 M193.895 160.776 C 185.586 163.466,182.961 168.951,184.887 179.600 C 185.738 184.305,186.691 190.485,187.416 196.000 C 188.489 204.165,188.843 206.636,189.422 210.000 C 189.955 213.099,190.325 215.659,191.749 226.093 C 192.011 228.014,192.454 229.814,192.733 230.093 C 193.406 230.766,202.156 230.804,202.824 230.136 C 203.337 229.623,204.591 223.127,204.992 218.907 C 205.134 217.418,205.494 215.030,205.794 213.600 C 206.094 212.170,206.454 209.740,206.594 208.200 C 206.734 206.660,207.094 204.230,207.394 202.800 C 207.693 201.370,208.058 198.760,208.204 197.000 C 208.350 195.240,208.644 193.111,208.858 192.269 C 209.072 191.428,209.501 188.728,209.811 186.269 C 210.122 183.811,210.578 180.900,210.825 179.800 C 212.800 171.016,210.703 165.171,204.386 161.851 C 202.019 160.608,196.243 160.015,193.895 160.776 M202.885 162.033 C 209.630 164.692,211.856 169.635,210.208 178.292 C 209.883 180.001,209.160 184.820,208.601 189.000 C 208.043 193.180,207.330 198.130,207.018 200.000 C 206.706 201.870,206.338 204.390,206.202 205.600 C 206.066 206.810,205.705 209.150,205.400 210.800 C 205.095 212.450,204.737 214.790,204.604 216.000 C 204.399 217.872,203.700 222.914,202.954 227.918 C 202.703 229.595,201.699 230.000,197.793 230.000 C 193.640 230.000,192.924 229.593,192.602 227.050 C 192.459 225.922,192.078 223.200,191.754 221.000 C 191.431 218.800,190.999 215.560,190.795 213.800 C 190.591 212.040,190.159 209.070,189.836 207.200 C 189.259 203.861,188.758 200.560,187.986 195.000 C 186.762 186.195,185.887 180.200,185.377 177.143 C 184.587 172.409,184.653 170.933,185.758 168.559 C 188.602 162.451,196.403 159.479,202.885 162.033 M195.284 238.771 C 191.931 239.624,189.082 243.503,189.095 247.200 C 189.125 256.096,200.940 259.027,205.500 251.271 C 209.356 244.711,202.914 236.830,195.284 238.771 M202.295 240.569 C 207.024 243.724,207.012 250.245,202.271 253.762 C 200.404 255.147,195.037 254.981,193.065 253.477 C 185.012 247.334,193.869 234.947,202.295 240.569 " stroke="none" fill="#f4848c" fill-rule="evenodd"></path></g></svg>